<?xml version="1.0" encoding="UTF-8"?>
<svg id="Layer_1" data-name="Layer 1" xmlns="http://www.w3.org/2000/svg" width="1920" height="1082" viewBox="0 0 1920 1082">
  <rect x="-209.58" y="-10.85" width="2129.58" height="1092.85" fill="#dadbdc"/>
  <g>
    <g>
      <path d="M1401.68,547.87c-.1,0-.21-.02-.31-.06l-73.5-30.29c-.41-.17-.61-.64-.44-1.05,.17-.41,.64-.61,1.05-.44l72.76,29.98,37.34-89.9c.17-.41,.64-.61,1.05-.43,.41,.17,.61,.64,.43,1.05l-37.65,90.64c-.13,.31-.43,.5-.74,.5Z"/>
      <g>
        <polygon points="1377.53 420.47 1354.11 431.33 1323.39 505.29 1395.78 535.12 1433.71 443.8 1377.53 420.47" fill="#fff"/>
        <path d="M1395.78,535.92c-.1,0-.21-.02-.31-.06l-72.38-29.83c-.2-.08-.35-.24-.44-.44-.08-.2-.08-.42,0-.62l30.72-73.96c.08-.19,.22-.34,.41-.42l23.42-10.86c.2-.09,.44-.1,.65-.01l56.17,23.33c.41,.17,.61,.64,.43,1.05l-37.93,91.31c-.13,.31-.43,.5-.74,.5Zm-71.33-31.07l70.9,29.21,37.31-89.83-55.1-22.89-22.82,10.58-30.29,72.92Z"/>
      </g>
      <g>
        <polygon points="1354.11 431.33 1370.57 437.72 1377.53 420.47 1354.11 431.33" fill="#59c4bc"/>
        <path d="M1370.57,438.52c-.1,0-.2-.02-.29-.05l-16.46-6.39c-.3-.12-.5-.4-.51-.72-.01-.32,.17-.62,.47-.76l23.42-10.86c.3-.14,.65-.08,.89,.15,.24,.23,.32,.58,.19,.88l-6.96,17.25c-.13,.31-.43,.5-.75,.5Zm-14.41-7.26l13.96,5.41,5.9-14.63-19.86,9.21Z"/>
      </g>
      <g>
        <path d="M1414.49,451.76s-.07,0-.1-.02l-13.2-5.48c-.14-.06-.2-.21-.15-.35,.06-.14,.21-.2,.35-.15l13.2,5.48c.14,.06,.2,.21,.15,.35-.04,.1-.14,.17-.25,.17Z"/>
        <path d="M1412.7,456.06s-.07,0-.1-.02l-18.63-7.74c-.14-.06-.2-.21-.15-.35,.06-.14,.22-.2,.35-.15l18.63,7.74c.14,.06,.2,.21,.15,.35-.04,.1-.14,.17-.25,.17Z"/>
      </g>
      <path d="M1404.81,475.07s-.07,0-.1-.02l-45.8-19.02c-.14-.06-.2-.21-.15-.35,.06-.14,.21-.2,.35-.15l45.8,19.02c.14,.06,.2,.21,.15,.35-.04,.1-.14,.17-.25,.17Z"/>
      <path d="M1398.97,489.12s-.07,0-.1-.02l-45.8-19.02c-.14-.06-.2-.21-.15-.35,.06-.14,.22-.2,.35-.15l45.8,19.02c.14,.06,.2,.21,.15,.35-.04,.1-.14,.17-.25,.17Z"/>
      <path d="M1393.14,503.16s-.07,0-.1-.02l-45.8-19.02c-.14-.06-.2-.21-.15-.35,.06-.14,.22-.2,.35-.15l45.8,19.02c.14,.06,.2,.21,.15,.35-.04,.1-.14,.17-.25,.17Z"/>
    </g>
    <path d="M1376.25,367.56c-.65,0-1.31-.11-1.95-.35l-4.36-1.61c-3-1.11-4.51-4.42-3.44-7.54l15.99-46.76c.63-1.85,2-3.37,3.75-4.18,1.69-.78,3.57-.84,5.27-.16l10.63,4.21c1.69,.67,3,1.97,3.71,3.67,.73,1.76,.71,3.78-.06,5.55l-18.88,43.77c-.18,.41-.65,.6-1.06,.42-.41-.18-.6-.65-.42-1.06l18.88-43.77c.6-1.4,.62-2.92,.05-4.3-.54-1.3-1.54-2.29-2.82-2.8l-10.63-4.21c-1.29-.51-2.72-.47-4.01,.13-1.35,.62-2.41,1.8-2.9,3.24l-15.99,46.76c-.78,2.29,.31,4.7,2.48,5.51l4.36,1.61c2.14,.79,4.61-.37,5.49-2.59l14.41-36.37c1-2.52-.16-5.36-2.58-6.32-1.18-.47-2.48-.43-3.65,.12-1.23,.57-2.19,1.65-2.64,2.96l-10.69,31.42c-.14,.42-.6,.65-1.02,.5-.42-.14-.65-.6-.5-1.02l10.69-31.42c.59-1.73,1.86-3.15,3.49-3.9,1.58-.73,3.33-.78,4.92-.15,3.25,1.29,4.81,5.06,3.48,8.41l-14.41,36.37c-.94,2.37-3.22,3.85-5.59,3.85Z"/>
    <g>
      <rect x="1257.17" y="186.42" width="9.85" height="9.85"/>
      <path d="M1267.02,197.07h-9.85c-.44,0-.8-.36-.8-.81v-9.85c0-.44,.36-.81,.8-.81h9.85c.44,0,.8,.36,.8,.81v9.85c0,.44-.36,.81-.8,.81Zm-9.05-1.61h8.24v-8.24h-8.24v8.24Z"/>
    </g>
    <g>
      <rect x="718.63" y="260.76" width="9.85" height="9.85"/>
      <path d="M728.48,271.42h-9.85c-.44,0-.8-.36-.8-.8v-9.85c0-.44,.36-.8,.8-.8h9.85c.44,0,.81,.36,.81,.8v9.85c0,.44-.36,.8-.81,.8Zm-9.05-1.61h8.24v-8.24h-8.24v8.24Z"/>
    </g>
    <g>
      <path d="M1260.09,321.95c0-1.11,.9-2.01,2.01-2.01s2.01,.9,2.01,2.01-.9,2.01-2.01,2.01-2.01-.9-2.01-2.01Z"/>
      <path d="M1262.1,324.76c-1.55,0-2.81-1.26-2.81-2.81s1.26-2.81,2.81-2.81,2.81,1.26,2.81,2.81-1.26,2.81-2.81,2.81Zm0-4.02c-.66,0-1.2,.54-1.2,1.2s.54,1.2,1.2,1.2,1.2-.54,1.2-1.2-.54-1.2-1.2-1.2Z"/>
    </g>
    <g>
      <path d="M1280.95,321.95c0-1.11,.9-2.01,2.01-2.01s2.01,.9,2.01,2.01-.9,2.01-2.01,2.01-2.01-.9-2.01-2.01Z"/>
      <path d="M1282.96,324.76c-1.55,0-2.81-1.26-2.81-2.81s1.26-2.81,2.81-2.81,2.81,1.26,2.81,2.81-1.26,2.81-2.81,2.81Zm0-4.02c-.66,0-1.2,.54-1.2,1.2s.54,1.2,1.2,1.2,1.2-.54,1.2-1.2-.54-1.2-1.2-1.2Z"/>
    </g>
    <g>
      <circle cx="1468.91" cy="421.12" r="2.01"/>
      <path d="M1468.91,423.94c-1.55,0-2.81-1.26-2.81-2.81s1.26-2.81,2.81-2.81,2.81,1.26,2.81,2.81-1.26,2.81-2.81,2.81Zm0-4.02c-.66,0-1.2,.54-1.2,1.2s.54,1.2,1.2,1.2,1.2-.54,1.2-1.2-.54-1.2-1.2-1.2Z"/>
    </g>
    <g>
      <path d="M1007.46,185.72c0-1.11,.9-2.01,2.01-2.01s2.01,.9,2.01,2.01-.9,2.01-2.01,2.01-2.01-.9-2.01-2.01Z"/>
      <path d="M1009.47,188.53c-1.55,0-2.81-1.26-2.81-2.81s1.26-2.81,2.81-2.81,2.81,1.26,2.81,2.81-1.26,2.81-2.81,2.81Zm0-4.01c-.66,0-1.2,.54-1.2,1.2s.54,1.2,1.2,1.2,1.2-.54,1.2-1.2-.54-1.2-1.2-1.2Z"/>
    </g>
    <g>
      <circle cx="1001.64" cy="610.08" r="2.01"/>
      <path d="M1001.64,612.9c-1.55,0-2.81-1.26-2.81-2.81s1.26-2.81,2.81-2.81,2.81,1.26,2.81,2.81-1.26,2.81-2.81,2.81Zm0-4.02c-.66,0-1.2,.54-1.2,1.2s.54,1.2,1.2,1.2,1.2-.54,1.2-1.2-.54-1.2-1.2-1.2Z"/>
    </g>
    <g>
      <path d="M788.6,555.8c0-1.11,.9-2.01,2.01-2.01s2.01,.9,2.01,2.01-.9,2.01-2.01,2.01-2.01-.9-2.01-2.01Z"/>
      <path d="M790.61,558.61c-1.55,0-2.81-1.26-2.81-2.81s1.26-2.81,2.81-2.81,2.81,1.26,2.81,2.81-1.26,2.81-2.81,2.81Zm0-4.01c-.66,0-1.2,.54-1.2,1.2s.54,1.2,1.2,1.2,1.2-.54,1.2-1.2-.54-1.2-1.2-1.2Z"/>
    </g>
    <g>
      <path d="M732.38,384.06c0-1.11,.9-2.01,2.01-2.01s2.01,.9,2.01,2.01-.9,2.01-2.01,2.01-2.01-.9-2.01-2.01Z"/>
      <path d="M734.38,386.87c-1.55,0-2.81-1.26-2.81-2.81s1.26-2.81,2.81-2.81,2.81,1.26,2.81,2.81-1.26,2.81-2.81,2.81Zm0-4.01c-.66,0-1.2,.54-1.2,1.2s.54,1.2,1.2,1.2,1.2-.54,1.2-1.2-.54-1.2-1.2-1.2Z"/>
    </g>
    <g>
      <path d="M901.07,345.26c0-1.11,.9-2.01,2.01-2.01s2.01,.9,2.01,2.01-.9,2.01-2.01,2.01-2.01-.9-2.01-2.01Z"/>
      <path d="M903.07,348.07c-1.55,0-2.81-1.26-2.81-2.81s1.26-2.81,2.81-2.81,2.81,1.26,2.81,2.81-1.26,2.81-2.81,2.81Zm0-4.01c-.66,0-1.2,.54-1.2,1.2s.54,1.2,1.2,1.2,1.2-.54,1.2-1.2-.54-1.2-1.2-1.2Z"/>
    </g>
    <g>
      <circle cx="883.5" cy="361.15" r="2.01"/>
      <path d="M883.5,363.96c-1.55,0-2.81-1.26-2.81-2.81s1.26-2.81,2.81-2.81,2.81,1.26,2.81,2.81-1.26,2.81-2.81,2.81Zm0-4.01c-.66,0-1.2,.54-1.2,1.2s.54,1.2,1.2,1.2,1.2-.54,1.2-1.2-.54-1.2-1.2-1.2Z"/>
    </g>
    <path d="M1468.91,392.47h-169.48c-.44,0-.8-.36-.8-.8s.36-.8,.8-.8h169.48c.44,0,.81,.36,.81,.8s-.36,.8-.81,.8Z"/>
    <g>
      <g>
        <rect x="774.9" y="192.09" width="86.62" height="31.77" fill="#fff"/>
        <path d="M861.52,224.67h-86.62c-.44,0-.8-.36-.8-.8v-31.77c0-.44,.36-.81,.8-.81h86.62c.44,0,.8,.36,.8,.81v31.77c0,.44-.36,.8-.8,.8Zm-85.81-1.61h85.01v-30.16h-85.01v30.16Z"/>
      </g>
      <g>
        <rect x="774.9" y="223.64" width="86.62" height="31.77" fill="#fff"/>
        <path d="M861.52,256.22h-86.62c-.44,0-.8-.36-.8-.8v-31.77c0-.44,.36-.81,.8-.81h86.62c.44,0,.8,.36,.8,.81v31.77c0,.44-.36,.8-.8,.8Zm-85.81-1.61h85.01v-30.16h-85.01v30.16Z"/>
      </g>
      <g>
        <rect x="774.9" y="255.41" width="86.62" height="31.77" fill="#fff"/>
        <path d="M861.52,287.99h-86.62c-.44,0-.8-.36-.8-.81v-31.77c0-.44,.36-.8,.8-.8h86.62c.44,0,.8,.36,.8,.8v31.77c0,.44-.36,.81-.8,.81Zm-85.81-1.61h85.01v-30.16h-85.01v30.16Z"/>
      </g>
      <g>
        <path d="M790.32,207.98c0-1.4,1.14-2.54,2.54-2.54s2.54,1.14,2.54,2.54-1.14,2.54-2.54,2.54-2.54-1.14-2.54-2.54Z"/>
        <path d="M792.86,211.32c-1.84,0-3.34-1.5-3.34-3.34s1.5-3.34,3.34-3.34,3.34,1.5,3.34,3.34-1.5,3.34-3.34,3.34Zm0-5.08c-.96,0-1.73,.78-1.73,1.73s.78,1.73,1.73,1.73,1.73-.78,1.73-1.73-.78-1.73-1.73-1.73Z"/>
      </g>
      <g>
        <path d="M790.32,239.53c0-1.4,1.14-2.54,2.54-2.54s2.54,1.14,2.54,2.54-1.14,2.54-2.54,2.54-2.54-1.14-2.54-2.54Z"/>
        <path d="M792.86,242.87c-1.84,0-3.34-1.5-3.34-3.34s1.5-3.34,3.34-3.34,3.34,1.5,3.34,3.34-1.5,3.34-3.34,3.34Zm0-5.08c-.96,0-1.73,.78-1.73,1.73s.78,1.73,1.73,1.73,1.73-.78,1.73-1.73-.78-1.73-1.73-1.73Z"/>
      </g>
      <g>
        <path d="M790.32,271.3c0-1.4,1.14-2.54,2.54-2.54,3.35,0,3.3,5.08,0,5.08-1.4,0-2.54-1.14-2.54-2.54Z"/>
        <path d="M792.86,274.64c-1.84,0-3.34-1.5-3.34-3.34s1.5-3.34,3.34-3.34c2.17,0,3.3,1.67,3.3,3.33,0,.86-.29,1.67-.82,2.28-.6,.69-1.48,1.08-2.48,1.08Zm0-5.08c-.96,0-1.73,.78-1.73,1.73s.78,1.73,1.73,1.73c.54,0,.96-.18,1.26-.52,.27-.31,.43-.76,.43-1.23,0-.79-.44-1.72-1.69-1.72Z"/>
      </g>
      <path d="M849.9,208.25h-39.33c-.15,0-.27-.12-.27-.27s.12-.27,.27-.27h39.33c.15,0,.27,.12,.27,.27s-.12,.27-.27,.27Z"/>
      <path d="M849.9,239.79h-39.33c-.15,0-.27-.12-.27-.27s.12-.27,.27-.27h39.33c.15,0,.27,.12,.27,.27s-.12,.27-.27,.27Z"/>
      <path d="M849.9,271.34h-39.33c-.15,0-.27-.12-.27-.27s.12-.27,.27-.27h39.33c.15,0,.27,.12,.27,.27s-.12,.27-.27,.27Z"/>
    </g>
    <g>
      <path d="M752.76,322.85c5.34-4.4,11.93-5.46,16.97-.6,5.04,4.86,5.71,15.12,.67,19.98-5.48,5.28-18.5,5.21-25.62,5.09-13.7-.24-27.63,.42-41.33,.42-25.67,0-22.89-22.05-16.04-26.75,3.33-2.28,7.85-1.91,10.87,.88-1.28-9.28,4.42-19.15,12.3-21.28,7.88-2.13,16.75,3.79,19.13,12.78,3.55-4.28,9.43-5.68,14.15-3.36,4.71,2.32,7.74,7.26,8.89,12.83Z" fill="#fff"/>
      <path d="M703.46,348.55c-14.98,0-19.49-7.32-20.84-11.68-2.07-6.69,.57-13.95,4.34-16.54,3.09-2.12,7.19-2.13,10.36-.19-.43-9.16,5.25-18.2,13.06-20.32,3.66-.99,7.67-.38,11.3,1.72,3.9,2.25,6.9,5.94,8.39,10.26,3.84-3.76,9.47-4.81,14.14-2.51,4.33,2.13,7.57,6.52,9.04,12.15,5.93-4.32,12.37-4.27,17.03,.23,2.74,2.65,4.38,6.88,4.38,11.33,0,3.97-1.35,7.54-3.7,9.81-5.87,5.67-19.59,5.43-26.19,5.32-7.88-.14-15.98,.03-23.81,.19-5.75,.12-11.7,.24-17.5,.24Zm-11.21-28.23c-1.54,0-3.07,.44-4.38,1.34-3.23,2.22-5.55,8.81-3.72,14.73,2.11,6.8,8.96,10.55,19.3,10.55,5.79,0,11.73-.12,17.47-.24,7.84-.16,15.95-.32,23.87-.19,5.88,.1,19.65,.34,25.04-4.86,2.04-1.97,3.21-5.12,3.21-8.65,0-4.02-1.45-7.82-3.89-10.17-4.36-4.2-10.3-3.96-15.9,.64-.22,.18-.51,.23-.78,.14-.27-.09-.46-.32-.52-.6-1.19-5.74-4.27-10.21-8.46-12.27-4.34-2.14-9.88-.81-13.17,3.15-.19,.23-.5,.34-.79,.27-.29-.07-.53-.29-.61-.58-1.19-4.5-4.13-8.38-8.06-10.65-3.25-1.88-6.83-2.43-10.07-1.56-7.46,2.02-12.94,11.55-11.72,20.39,.05,.34-.12,.67-.43,.82-.3,.16-.67,.11-.92-.12-1.53-1.42-3.52-2.15-5.49-2.15Z"/>
    </g>
    <g>
      <g>
        <g>
          <polygon points="1306.55 596.23 1259.17 551.35 1268.78 541.22 1316.16 586.1 1318.28 598.08 1306.55 596.23" fill="#fff"/>
          <path d="M1318.28,598.89s-.08,0-.13-.01l-11.73-1.85c-.16-.03-.31-.1-.43-.21l-47.37-44.88c-.16-.15-.25-.35-.25-.56,0-.21,.07-.42,.22-.58l9.61-10.13c.31-.32,.81-.34,1.14-.03l47.37,44.88c.13,.12,.21,.27,.24,.44l2.12,11.98c.05,.26-.04,.52-.22,.7-.15,.15-.36,.24-.57,.24Zm-11.36-3.41l10.37,1.64-1.88-10.61-46.6-44.14-8.5,8.96,46.61,44.15Z"/>
        </g>
        <path d="M1306.29,596.85c-.2,0-.4-.07-.55-.22-.32-.31-.34-.82-.03-1.14l9.31-9.82c.31-.32,.82-.34,1.14-.03,.32,.31,.34,.82,.03,1.14l-9.31,9.82c-.16,.17-.37,.25-.58,.25Z"/>
        <path d="M1320.79,601.27c-.2,0-.4-.07-.55-.22l-2.63-2.49c-.32-.31-.34-.82-.03-1.14,.31-.32,.82-.34,1.14-.03l2.63,2.49c.32,.31,.34,.82,.03,1.14-.16,.17-.37,.25-.58,.25Z"/>
      </g>
      <rect x="1254.4" y="535.74" width="10.73" height="12.99" transform="translate(-.31 1083.74) rotate(-46.54)"/>
    </g>
    <g>
      <path d="M766.01,522.85c-.33,0-.64-.2-.76-.53l-36.97-101.01c-.07-.2-.06-.42,.03-.62,.09-.19,.25-.34,.45-.42l83.01-30.28c.2-.07,.42-.06,.62,.03,.19,.09,.34,.25,.42,.45l9.98,27.35c.15,.42-.06,.88-.48,1.03-.42,.15-.88-.06-1.03-.48l-9.7-26.6-81.5,29.72,36.42,99.5,81.36-29.75-5.88-16.12c-.15-.42,.06-.88,.48-1.03,.42-.15,.88,.06,1.03,.48l6.16,16.88c.15,.42-.06,.88-.48,1.03l-82.87,30.3c-.09,.03-.18,.05-.28,.05Z"/>
      <g>
        <path d="M786.69,417.16c-.11,0-.21-.07-.25-.18-.05-.14,.02-.29,.16-.34l15.13-5.52c.14-.05,.29,.02,.34,.16,.05,.14-.02,.29-.16,.34l-15.13,5.52s-.06,.02-.09,.02Z"/>
        <path d="M782.19,424.17c-.11,0-.21-.07-.25-.18-.05-.14,.02-.29,.16-.34l21.36-7.79c.14-.05,.29,.02,.34,.16,.05,.14-.02,.29-.16,.34l-21.36,7.79s-.06,.02-.09,.02Z"/>
      </g>
      <path d="M758.69,456.49c-.11,0-.21-.07-.25-.18-.05-.14,.02-.29,.16-.34l46.56-16.98c.14-.05,.29,.02,.34,.16,.05,.14-.02,.29-.16,.34l-46.56,16.98s-.06,.02-.09,.02Z"/>
      <path d="M764.51,471.72c-.11,0-.21-.07-.25-.18-.05-.14,.02-.29,.16-.34l39.13-14.27c.14-.05,.29,.02,.34,.16,.05,.14-.02,.29-.16,.34l-39.13,14.27s-.06,.02-.09,.02Z"/>
      <path d="M769.98,487.45c-.11,0-.21-.07-.25-.18-.05-.14,.02-.29,.16-.34l41.83-15.25c.14-.05,.29,.02,.34,.16,.05,.14-.02,.29-.16,.34l-41.83,15.25s-.06,.02-.09,.02Z"/>
      <g>
        <path d="M851.95,443.56c-2.31-.73-3.69-.31-5.58-.84-.78-1.71-2.34-4.56-3.19-6.25,1.14-2.11,1.88-2.79,2.89-4.58-.08-.24-.32-.42-.56-.6-.57-.43-1.14-.86-1.72-1.27-2.14-1.52-4.45-2.79-6.86-3.8-1.11,2.12-1.94,4.1-2.77,6.08-2.32-.05-4.65,.23-6.9,.82-.98-1.94-2.09-3.81-3.31-5.6-2.73,1.47-5.36,3.31-7.51,5.61,1.15,1.74,2.06,2.73,3.34,4.15-1.13,2.17-2.26,4.22-3.01,6.37-2.36-.37-4.18-.3-6.4-.67-.91,3.62-1.05,7.36,.17,10.74,2.2-.49,3.4-1.02,5.38-1.58,1.08,2.09,2.57,4.05,4.23,5.78-1.03,2.02-1.43,3.62-2.38,5.22,2.05,2.17,4.67,3.73,7.49,4.58,.84-1.94,1.38-3.14,2.17-4.85,2.1,.05,4.79,.18,6.84-.3,1.31,1.69,1.8,2.71,2.66,4.44,3.21-.61,6.24-1.93,8.97-3.71-1.03-1.99-1.26-3.26-2.38-4.89,1.3-1.86,2.41-4.21,2.97-6.18,2.11-.37,3.06-.26,4.98-.34,.81-2.84,.89-5.62,.49-8.33Zm-16.26,8.84c-1.16,.95-2.34,1.85-6.62,.9-1.68-.38-5.97-2.97-4.01-8.82,.62-1.87,2.25-3.43,4.2-3.81,1.94-.38,3.51-.44,4.94,.1,2.23,.84,3.85,3.01,4.12,5.36s-.79,4.77-2.62,6.28Z" fill="#59c4bc"/>
        <path d="M825.24,468.51c-.08,0-.15-.01-.23-.03-3.03-.91-5.75-2.57-7.85-4.8-.25-.26-.29-.66-.11-.96,.49-.82,.84-1.68,1.21-2.58,.27-.66,.54-1.34,.9-2.08-1.5-1.63-2.73-3.29-3.66-4.97-.48,.15-.93,.29-1.37,.43-1.05,.34-2.03,.66-3.43,.97-.4,.09-.79-.13-.93-.51-1.18-3.25-1.25-7.02-.2-11.21,.1-.41,.5-.67,.91-.6,1.09,.18,2.07,.25,3.11,.33,.83,.06,1.69,.12,2.63,.25,.65-1.7,1.5-3.32,2.39-5.03l.17-.33c-1.08-1.21-1.97-2.22-3.03-3.83-.21-.31-.17-.72,.08-.99,2.01-2.15,4.6-4.09,7.71-5.77,.36-.2,.82-.09,1.05,.26,1.12,1.64,2.15,3.36,3.07,5.12,1.95-.46,3.94-.69,5.94-.7,.76-1.81,1.56-3.67,2.59-5.64,.19-.37,.64-.53,1.02-.37,2.47,1.03,4.83,2.34,7.01,3.88,.59,.42,1.16,.85,1.74,1.28,.3,.22,.67,.5,.84,.98,.08,.22,.05,.46-.06,.66-.48,.86-.91,1.49-1.33,2.09-.42,.6-.85,1.22-1.35,2.11,.27,.52,.58,1.12,.91,1.75,.67,1.28,1.42,2.71,1.94,3.8,.64,.14,1.25,.18,1.88,.21,.95,.06,2.02,.12,3.37,.55,.29,.09,.51,.35,.55,.65,.44,3.05,.28,5.89-.52,8.66-.09,.33-.39,.57-.74,.58-.55,.02-1.02,.03-1.47,.04-.97,.02-1.75,.03-2.92,.21-.59,1.83-1.54,3.81-2.63,5.47,.53,.85,.85,1.63,1.19,2.44,.27,.64,.54,1.29,.94,2.07,.19,.37,.07,.82-.27,1.04-2.97,1.94-6.09,3.23-9.26,3.83-.36,.07-.71-.11-.87-.43l-.12-.25c-.71-1.43-1.17-2.34-2.15-3.66-1.85,.33-4.05,.27-5.86,.23h-.14c-.71,1.54-1.23,2.7-1.94,4.35-.13,.3-.43,.48-.74,.48Zm-6.49-5.51c1.68,1.65,3.75,2.92,6.05,3.72,.64-1.48,1.16-2.61,1.89-4.19,.13-.29,.43-.48,.75-.47l.67,.02c1.89,.05,4.23,.11,5.97-.29,.3-.07,.62,.04,.82,.29,1.21,1.56,1.75,2.59,2.47,4.02,2.55-.56,5.06-1.6,7.48-3.09-.26-.56-.48-1.06-.67-1.52-.38-.92-.72-1.71-1.34-2.62-.19-.28-.19-.64,0-.92,1.21-1.72,2.3-4,2.86-5.94,.08-.29,.33-.52,.63-.57,1.58-.28,2.54-.3,3.66-.31,.26,0,.54,0,.83-.02,.56-2.22,.69-4.49,.39-6.92-.94-.24-1.73-.29-2.5-.33-.8-.05-1.63-.09-2.58-.36-.23-.06-.42-.23-.51-.44-.49-1.08-1.33-2.67-2.06-4.07-.42-.79-.81-1.54-1.12-2.15-.12-.24-.11-.51,0-.74,.63-1.17,1.15-1.91,1.64-2.63,.33-.47,.64-.92,.97-1.48-.02-.02-.04-.03-.06-.05-.56-.42-1.13-.85-1.7-1.25-1.89-1.34-3.91-2.48-6.02-3.42-.93,1.85-1.68,3.63-2.4,5.35-.13,.3-.43,.49-.76,.49-2.25-.04-4.5,.22-6.68,.8-.37,.1-.75-.08-.92-.41-.85-1.68-1.81-3.33-2.85-4.91-2.45,1.38-4.54,2.94-6.22,4.63,.9,1.3,1.69,2.17,2.72,3.33l.18,.2c.22,.25,.27,.61,.11,.91l-.43,.83c-.97,1.86-1.89,3.62-2.53,5.43-.13,.37-.5,.59-.88,.53-1.14-.18-2.16-.25-3.15-.33-.81-.06-1.63-.12-2.51-.24-.73,3.3-.7,6.28,.09,8.88,.98-.25,1.76-.5,2.58-.77,.63-.21,1.28-.42,2.05-.63,.37-.1,.76,.06,.93,.4,.97,1.88,2.35,3.77,4.1,5.6,.24,.25,.29,.62,.13,.92-.45,.88-.78,1.69-1.09,2.46-.32,.78-.62,1.52-1.01,2.26Zm13.45-8.49c-.88,0-1.95-.13-3.3-.43-1.02-.23-3.05-1.18-4.26-3.32-1.04-1.84-1.15-4.1-.34-6.55,.74-2.21,2.62-3.92,4.81-4.34,2.31-.45,3.92-.41,5.38,.14,2.47,.93,4.33,3.35,4.64,6.02,.29,2.59-.82,5.27-2.91,6.99-1.01,.83-2.02,1.49-4.01,1.49Zm-.34-13.34c-.7,0-1.5,.09-2.45,.28-1.6,.31-3.04,1.63-3.59,3.27-.68,2.03-.61,3.8,.21,5.25,.86,1.53,2.39,2.35,3.21,2.54,3.97,.89,4.93,.1,5.94-.73,0,0,0,0,0,0,1.64-1.35,2.56-3.54,2.33-5.57-.24-2.09-1.68-3.97-3.6-4.69-.61-.23-1.27-.34-2.05-.34Z"/>
      </g>
    </g>
    <path d="M1195.89,219.09c-.14,0-.28-.04-.41-.12-4.65-2.8-7.95-7.77-9.05-13.65-.49-2.6-.51-5.2-.09-7.66-4.01-.06-8-1.41-11.04-4.03-3.85-3.33-5.88-8.47-5.82-13.55,0,0,0,0,0,0-11.95-2.67-20.94-14.79-20.03-27,.03-.44,.42-.77,.86-.74,.44,.03,.78,.42,.74,.86-.84,11.37,7.45,22.64,18.53,25.26,.26-2.48,1.03-4.89,2.35-7.02,1.03-1.65,2.77-3.65,5.25-3.81,1.81-.11,3.45,.92,4.38,2.76,1.18,2.35,.93,5.26-.61,7.07-2.06,2.43-5.68,3.48-9.88,2.91,0,4.52,1.85,9.08,5.28,12.04,2.82,2.44,6.54,3.66,10.27,3.66,.02,0,.04,0,.06,0,.63-2.48,1.72-4.78,3.25-6.75,1.58-2.05,3.22-3.19,5.01-3.5,1.27-.22,2.66,.12,3.7,.91,.86,.65,1.39,1.55,1.49,2.52,.16,1.51-.66,3.07-2.38,4.52-2.73,2.3-6.21,3.58-9.77,3.84-.44,2.36-.44,4.88,.03,7.41,1.02,5.43,4.04,10,8.3,12.56,.38,.23,.5,.72,.28,1.1-.15,.25-.42,.39-.69,.39Zm-.19-31.72c-.17,0-.33,.01-.5,.04-1.37,.24-2.68,1.19-4.01,2.9-1.29,1.67-2.24,3.59-2.83,5.67,3.05-.32,6-1.46,8.34-3.44,.9-.76,1.94-1.91,1.81-3.12-.07-.68-.51-1.14-.86-1.41-.55-.42-1.27-.65-1.96-.65Zm-24.56-8.62c2.3,.31,6.28,.37,8.57-2.33,1.26-1.49,1.15-3.8,.4-5.31-.3-.6-1.16-1.98-2.84-1.87-1.89,.12-3.31,1.96-3.99,3.05-1.22,1.96-1.92,4.18-2.14,6.46Z"/>
    <path d="M647.21,421.3c-.34,0-.66-.22-.77-.57-.13-.43,.11-.88,.54-1,5.48-1.66,9.68-7.15,10.86-13.2-3.71-1.22-6.92-4.17-6.89-8.3,.01-1.46,.5-2.74,1.35-3.51,1.3-1.18,3.37-1.11,4.82,.16,1.01,.89,1.73,2.27,2.19,4.21,.48,2.04,.57,4.17,.32,6.25,.18,.04,.37,.07,.55,.1,5.51,.81,11.26-1.38,15-5.71,1.96-2.27,3.32-5.11,3.96-8.08-1.42-.76-2.78-1.66-4.06-2.67-1.44-1.14-3.18-2.76-3.83-5.11-.62-2.25,.12-5.31,2.41-6.32,.97-.43,2.02-.41,3.02,.05,1.61,.74,3.08,2.65,3.75,4.87,.79,2.62,.94,5.48,.5,8.28,4.6,2.22,9.79,3.04,14.84,2.28,.44-.07,.85,.24,.92,.68,.07,.44-.24,.85-.68,.92-5.24,.79-10.61-.02-15.4-2.24-.73,3.09-2.17,6.02-4.22,8.39-4.1,4.74-10.4,7.13-16.45,6.25-.19-.03-.38-.06-.58-.1-1.34,6.57-5.94,12.52-11.93,14.33-.08,.02-.16,.03-.23,.03Zm7.3-25.81c-.41,0-.81,.13-1.13,.42-.51,.46-.81,1.33-.82,2.33-.03,3.2,2.56,5.58,5.52,6.66,.19-1.82,.09-3.66-.33-5.45-.38-1.61-.93-2.71-1.68-3.37-.42-.36-.99-.6-1.55-.6Zm20.59-16.63c-.27,0-.53,.06-.79,.17-1.43,.63-1.94,2.83-1.51,4.42,.52,1.9,2.03,3.28,3.28,4.28,1.06,.84,2.18,1.6,3.35,2.25,.3-2.39,.14-4.81-.54-7.03-.54-1.77-1.7-3.33-2.89-3.88-.31-.14-.61-.21-.9-.21Z"/>
    <path d="M1183.59,606.61c-.83,0-1.69-.22-2.48-.68-1.58-.92-2.56-2.53-3.16-3.65-1.76-3.3-2.72-7.19-2.85-11.38-.07-.02-.15-.04-.22-.06-5.24-1.44-10.9-.91-15.89-.44-.44,.04-.84-.28-.88-.73-.04-.44,.28-.83,.73-.88,5.06-.47,10.79-1.01,16.25,.43,.05-2.38,.35-4.85,.92-7.35,1.58-6.93,4.84-13.34,7.71-19,.2-.4,.69-.56,1.08-.35,.4,.2,.55,.69,.35,1.08-2.83,5.57-6.04,11.89-7.57,18.62-.58,2.56-.88,5.07-.89,7.49,4.48,1.59,9.28,5.07,10.64,10.6,.56,2.27,.15,4.22-1.12,5.35-.7,.62-1.64,.94-2.62,.94Zm-6.86-15.16c.19,3.71,1.08,7.14,2.64,10.07,.51,.95,1.33,2.31,2.55,3.02,.94,.55,2.35,.7,3.23-.07,1.18-1.04,.78-3.14,.63-3.76-.97-3.97-4.43-7.46-9.04-9.26Z"/>
    <g>
      <path d="M1171.32,322.49c-1.89,10.55,2.9,22.37,12.35,27.41,5.15,2.75,11.16,3.41,16.51,5.74,5.35,2.33,10.38,7.41,9.52,13.18-.57,3.83-4.1,12.18,6.57,19.06,8.8,5.67,3,28.03-27.78,33.01-9.43,1.52-2.5-4.93-11.6-7.82-8.99-2.86-16.53-9.37-21.82-17.18-5.29-7.81-8.48-16.87-10.64-26.05-2.48-10.58-3.59-22,.54-32.05,4.12-10.05,14.8-18.04,26.37-15.29Z"/>
      <path d="M1186.06,421.93c-3.02,0-3.73-1.36-4.35-3.3-.53-1.66-1.13-3.53-5.07-4.78-8.54-2.71-16.44-8.93-22.25-17.5-4.71-6.96-8.23-15.57-10.76-26.32-3.17-13.52-2.99-23.86,.57-32.54,4.04-9.83,14.98-18.7,27.3-15.77,.42,.1,.68,.5,.61,.93-1.92,10.67,3.1,21.84,11.94,26.56,2.79,1.49,5.94,2.38,8.98,3.23,2.48,.7,5.05,1.42,7.47,2.48,5.47,2.38,10.93,7.79,9.99,14.04-.08,.51-.2,1.08-.33,1.69-.93,4.32-2.33,10.86,6.54,16.57,3.36,2.17,4.8,6.59,3.77,11.54-1.78,8.49-11.19,19.59-31.86,22.93-1,.16-1.84,.24-2.55,.24Zm-19.36-99.17c-9.59,0-17.72,7.33-21,15.34-3.43,8.36-3.59,18.39-.5,31.56,2.48,10.56,5.92,18.99,10.52,25.79,5.6,8.27,13.2,14.26,21.4,16.86,4.73,1.5,5.53,4,6.12,5.83,.57,1.77,.85,2.66,5.11,1.97,19.87-3.21,28.87-13.68,30.54-21.68,.9-4.29-.28-8.06-3.06-9.86-9.8-6.32-8.14-14.09-7.24-18.26,.13-.61,.24-1.14,.31-1.59,.81-5.42-4.12-10.19-9.04-12.33-2.32-1.01-4.83-1.72-7.26-2.4-3.13-.88-6.36-1.79-9.3-3.36-9.22-4.92-14.56-16.39-12.89-27.5-1.25-.25-2.49-.37-3.71-.37Z"/>
    </g>
    <g>
      <path d="M1134.29,296.98c3.12,15.22-13.95,36.8-20.19,51.03-2.03,4.63-4.97,8.84-6.64,13.61-1.98,5.67-2.04,11.83-1.5,17.81,1.02,11.3,4.42,22.9,12.37,31,7.95,8.1,21.25,11.63,31.05,5.92,8.6-5.01,12.53-15.79,11.99-25.73-.54-9.94-4.78-19.28-9.26-28.17-10.76-21.37-3.2-47.03-17.82-65.46Z"/>
      <path d="M1138.56,419.92c-7.34,0-15.11-3.14-20.8-8.93-7.12-7.26-11.36-17.85-12.59-31.49-.67-7.44-.18-13.21,1.54-18.15,.99-2.83,2.43-5.48,3.82-8.05,.99-1.82,2.01-3.71,2.84-5.62,1.8-4.12,4.49-8.81,7.33-13.79,7.02-12.28,14.97-26.19,12.81-36.76-.07-.37,.11-.73,.45-.89,.34-.16,.74-.06,.97,.23,8.19,10.32,9.51,22.54,10.91,35.47,1.1,10.15,2.23,20.64,7,30.12,4.42,8.79,8.79,18.22,9.35,28.49,.62,11.34-4.25,21.73-12.39,26.47-3.34,1.95-7.22,2.88-11.23,2.88Zm-3.1-119.98c.44,10.61-6.85,23.38-13.36,34.76-2.82,4.94-5.49,9.6-7.25,13.63-.86,1.97-1.9,3.89-2.9,5.74-1.36,2.51-2.77,5.11-3.71,7.81-1.65,4.72-2.11,10.27-1.46,17.47,1.2,13.26,5.28,23.52,12.14,30.51,8.3,8.46,21.22,10.94,30.07,5.79,7.63-4.45,12.18-14.26,11.59-24.99-.54-9.96-4.83-19.22-9.18-27.85-4.9-9.74-6.05-20.39-7.17-30.68-1.26-11.67-2.46-22.74-8.77-32.19Z"/>
    </g>
    <g>
      <path d="M1155.2,375.43c-.28-8.11-.14-16.12,.18-22.19-3.27-1.64-6.81-2.78-10.43-3.36-1.63-.26-3.46-.36-4.71,.62-.78,.61-4.5-2.66-4.88-1.76-2.64,6.2-5.33,21.12-7.97,27.31-.2,.48-12.62,2.18-12.82,2.66-.86,2.02,5.48,10.16,6.12,10.59,33.87,22.52,52.15-11.21,52.15-11.21,0,0-8.11-.84-17.65-2.66Z" fill="#fff"/>
      <path d="M1143.15,397.85c-7.33,0-15-2.64-22.9-7.89-.75-.5-7.53-8.96-6.42-11.57,.24-.56,.27-.64,7.03-1.81,2.16-.37,5.05-.87,5.91-1.12,1.26-3.08,2.57-8.25,3.83-13.26,1.32-5.22,2.68-10.62,4.03-13.77,.12-.28,.35-.49,.64-.59,.68-.23,1.48,.21,2.84,1,.54,.32,1.41,.83,1.79,.92,1.52-1.09,3.57-.93,5.19-.67,3.71,.6,7.3,1.76,10.66,3.44,.29,.14,.46,.44,.44,.76-.35,6.6-.43,14.38-.2,21.47,9.12,1.71,16.87,2.52,16.94,2.53,.27,.03,.5,.19,.63,.43,.13,.24,.12,.52,0,.76-.33,.6-8.15,14.76-23.18,18.5-2.37,.59-4.77,.88-7.22,.88Zm-27.87-18.58c.04,1.8,4.81,8.46,5.9,9.37,10.1,6.71,19.8,9,28.8,6.77,12.03-2.99,19.43-13.33,21.54-16.66-2.65-.31-9.17-1.14-16.46-2.53-.37-.07-.64-.39-.65-.76-.25-7.12-.19-15,.16-21.73-3.08-1.48-6.35-2.51-9.72-3.06-1.35-.22-3.04-.36-4.08,.46-.82,.64-1.98-.04-3.46-.9-.41-.24-.99-.58-1.36-.74-1.24,3.1-2.53,8.18-3.77,13.11-1.32,5.22-2.68,10.62-4.03,13.77-.24,.56-.27,.64-7,1.8-2.11,.36-4.92,.85-5.86,1.11Zm-.26,.09h0Z"/>
    </g>
    <g>
      <g>
        <path d="M1123.97,296.63c-1.84,7.35-3.33,15.24-7.89,21.48-2.49,3.4-10.03,22.73,3.27,34.35,6.99,6.11,16.57,9.21,26.98,7.45,7.06-1.2,18.22-9.19,21.06-20.38,4.19,3.17,10.11,1.84,11.84-2.38,1-2.43-.48-6.55-3.38-7.54-2.24-.76-2.52-.85-4.7-.23,.83-5.45,2.15-10.81,4.52-16.52-3.02-8.02-10.41-14.43-18.48-19.11-2.67-1.55-5.48-2.96-8.5-3.75-8.65-2.23-22.82-.93-24.71,6.62Z" fill="#fff"/>
        <path d="M1140.49,361.21c-8.02,0-15.55-2.8-21.67-8.14-13.4-11.71-6.46-31.23-3.39-35.43,3.91-5.35,5.53-12.04,7.1-18.5,.22-.91,.44-1.81,.66-2.71,.54-2.17,2-3.97,4.32-5.35,5.61-3.34,15.2-3.44,21.36-1.85,3.37,.87,6.42,2.5,8.7,3.83,6.7,3.89,15.41,10.43,18.83,19.52,.07,.19,.07,.4,0,.59-1.99,4.79-3.36,9.62-4.28,15.13,1.42-.29,2.08-.09,3.97,.55,1.48,.5,2.77,1.76,3.54,3.45,.79,1.75,.92,3.72,.33,5.16-.86,2.1-2.71,3.67-5.06,4.32-2.34,.64-4.9,.28-7.04-.96-3.4,11.19-14.45,18.71-21.4,19.89-2.01,.34-4.01,.51-5.98,.51Zm-.17-71.38c-4.36,0-8.85,.78-11.98,2.64-1.94,1.16-3.15,2.62-3.59,4.36h0c-.22,.89-.44,1.79-.66,2.69-1.6,6.62-3.26,13.46-7.36,19.07-1.7,2.32-10.28,21.53,3.15,33.27,7.25,6.33,16.59,8.91,26.31,7.26,6.57-1.12,17.62-8.8,20.41-19.78,.07-.26,.26-.47,.51-.56,.25-.09,.54-.05,.75,.12,1.91,1.45,4.38,1.94,6.61,1.34,1.87-.51,3.33-1.74,4-3.38,.42-1.02,.3-2.54-.31-3.88-.58-1.29-1.53-2.23-2.59-2.59-2.18-.74-2.26-.77-4.22-.22-.26,.07-.55,0-.75-.17-.21-.18-.3-.45-.26-.72,.92-6.02,2.34-11.24,4.45-16.4-3.33-8.5-11.62-14.69-18.02-18.4-2.2-1.27-5.12-2.84-8.3-3.66-2.36-.61-5.23-.96-8.16-.96Zm-16.34,6.8h0Z"/>
      </g>
      <path d="M1150.22,339.16c-.82,0-1.65-.1-2.47-.31-2.86-.73-5.23-2.64-6.68-5.38-1.43-2.71-1.79-5.92-1-9.04,.79-3.11,2.63-5.77,5.19-7.47,2.58-1.72,5.58-2.27,8.43-1.54,2.86,.73,5.23,2.64,6.68,5.38,1.43,2.71,1.79,5.92,1,9.04-1.41,5.55-6.12,9.32-11.15,9.32Zm.99-22.44c-1.75,0-3.49,.54-5.05,1.58-2.22,1.48-3.83,3.8-4.52,6.53-.69,2.73-.39,5.53,.86,7.89,1.23,2.33,3.24,3.96,5.65,4.57,5.01,1.27,10.24-2.25,11.66-7.85,.69-2.73,.39-5.53-.86-7.89-1.23-2.33-3.24-3.96-5.65-4.57-.69-.18-1.39-.26-2.09-.26Z"/>
      <path d="M1121.76,329.37c-.83,0-1.67-.1-2.49-.31-2.86-.73-5.23-2.64-6.68-5.38-1.43-2.71-1.79-5.92-1-9.04,1.64-6.46,7.74-10.5,13.62-9.01,2.86,.73,5.23,2.64,6.68,5.38,1.43,2.71,1.79,5.92,1,9.04-.79,3.11-2.63,5.77-5.19,7.47-1.84,1.22-3.88,1.85-5.94,1.85Zm.98-22.44c-4.31,0-8.36,3.28-9.59,8.1-.69,2.73-.39,5.53,.86,7.89,1.23,2.33,3.24,3.96,5.65,4.57,2.41,.61,4.95,.14,7.15-1.32,2.22-1.48,3.83-3.8,4.52-6.53,.69-2.73,.39-5.53-.86-7.89-1.23-2.33-3.24-3.96-5.65-4.57-.69-.18-1.39-.26-2.08-.26Z"/>
      <g>
        <path d="M1199.27,277.06c.87-10.54-6.97-19.78-17.51-20.65-10.54-.87-19.78,6.97-20.65,17.51-.87,10.54,6.97,19.78,17.51,20.65,10.54,.87,19.78-6.97,20.65-17.51Z"/>
        <path d="M1180.22,295.44c-.55,0-1.11-.02-1.67-.07-10.96-.9-19.15-10.55-18.25-21.52,.9-10.96,10.56-19.15,21.52-18.25,5.31,.44,10.13,2.92,13.58,6.98,3.45,4.06,5.1,9.23,4.67,14.54l-.8-.07,.8,.07c-.44,5.31-2.92,10.13-6.98,13.58-3.64,3.08-8.15,4.74-12.87,4.74Zm-.05-38.29c-9.44,0-17.48,7.27-18.27,16.84-.83,10.08,6.7,18.95,16.78,19.78,4.88,.41,9.63-1.12,13.37-4.29,3.74-3.17,6.02-7.6,6.42-12.49,.4-4.88-1.12-9.63-4.29-13.36-3.17-3.74-7.6-6.02-12.49-6.42-.51-.04-1.01-.06-1.52-.06Z"/>
      </g>
      <g>
        <path d="M1170.24,329.87c-1.74-8.79-2.51-14.93-.61-24.05-20.59,3.27-37.03-1.46-52.76-8.39,.74-2.85,3.69-8.64,5.84-10.76,5.27-5.22,10.88-9.31,22.23-9.81,7.95-.34,17.84,1.25,24.74,5.2,6.85,3.92,11.54,10.32,14.76,17.06,2.56,5.36,3.54,12.87,2.33,19.43-1.03,5.62-3.83,8.96-8.27,13.34-1.03-1.22-1.98-2.43-3.62-2.74-1.64-.31-2.92,.08-4.64,.73Z"/>
        <path d="M1178.5,332.68s-.02,0-.04,0c-.22-.01-.43-.11-.58-.29l-.13-.15c-.93-1.11-1.74-2.07-3.02-2.31-1.36-.26-2.44,.02-4.21,.69-.22,.08-.47,.06-.68-.05-.21-.11-.35-.32-.4-.55-1.56-7.86-2.53-14.21-.84-23.24-21.5,3.13-38.37-2.59-52.07-8.62-.36-.16-.55-.56-.45-.94,.79-3.05,3.8-8.9,6.05-11.13,5.9-5.84,11.77-9.56,22.76-10.04,7.15-.3,17.52,.92,25.17,5.3,6.18,3.54,11.26,9.4,15.09,17.41,2.7,5.65,3.62,13.28,2.4,19.92-1.12,6.08-4.37,9.69-8.49,13.77-.15,.15-.35,.23-.57,.23Zm-4.75-4.45c.41,0,.83,.04,1.28,.12,1.59,.3,2.61,1.29,3.52,2.34,4.29-4.31,6.52-7.37,7.43-12.3,1.14-6.22,.25-13.65-2.27-18.93-3.68-7.71-8.54-13.33-14.43-16.71-7.35-4.21-17.38-5.39-24.3-5.09-11.61,.5-17.08,5-21.7,9.57-1.85,1.83-4.48,6.81-5.43,9.74,13.61,5.94,30.37,11.44,51.66,8.05,.26-.04,.53,.05,.71,.24,.18,.19,.26,.46,.21,.72-1.86,8.98-1.04,15.23,.43,22.81,.97-.33,1.89-.56,2.9-.56Z"/>
      </g>
      <path d="M1138.11,347.67c-2.48,0-4.55-1.09-5.55-2.94-.21-.39-.07-.88,.32-1.09,.39-.21,.88-.07,1.09,.32,1.09,2,3.52,2.11,4.26,2.1,2.19-.04,4.34-.95,6.04-2.55,.32-.3,.83-.29,1.14,.03,.3,.32,.29,.83-.03,1.14-2,1.88-4.52,2.94-7.12,2.99-.05,0-.1,0-.15,0Z"/>
      <path d="M1150.07,327.43c.23-.92-.36-1.86-1.33-2.11-.97-.25-1.94,.3-2.18,1.22-.23,.92,.36,1.86,1.33,2.11,.97,.25,1.94-.3,2.18-1.22Z"/>
      <path d="M1124.63,318.87c.23-.92-.36-1.86-1.33-2.11-.97-.25-1.94,.3-2.18,1.22-.23,.92,.36,1.86,1.33,2.11,.97,.25,1.94-.3,2.18-1.22Z"/>
      <path d="M1130.19,332.97c-.19,0-.39-.07-.54-.21l-1.93-1.76c-.24-.22-.73-.67-.73-1.34,0-.82,.72-1.26,1.06-1.47,2.58-1.59,4.3-4.3,4.6-7.23,.05-.44,.44-.76,.88-.72,.44,.05,.76,.44,.72,.88-.35,3.43-2.36,6.58-5.35,8.44-.04,.03-.13,.08-.21,.14,.03,.03,.07,.07,.12,.11l1.93,1.76c.33,.3,.35,.81,.05,1.14-.16,.17-.38,.26-.59,.26Z"/>
      <path d="M1142.11,320.94c-.29,0-.57-.16-.72-.44-1.01-1.96-3.12-3.41-5.38-3.7-1.11-.14-2.37,.13-2.67,.92-.16,.42-.62,.63-1.04,.47-.42-.16-.63-.62-.47-1.04,.62-1.66,2.65-2.17,4.38-1.95,2.77,.35,5.36,2.14,6.61,4.55,.2,.39,.05,.88-.35,1.08-.12,.06-.24,.09-.37,.09Z"/>
      <path d="M1169.68,329.84c-.1,0-.2-.02-.29-.06l-8.25-3.24c-.41-.16-.62-.63-.46-1.04,.16-.41,.63-.62,1.04-.46l8.25,3.24c.41,.16,.62,.63,.46,1.04-.12,.32-.43,.51-.75,.51Z"/>
      <path d="M1168.92,336.16c-.1,0-.2-.02-.3-.06-.41-.17-.61-.64-.44-1.05,.81-1.98,1.21-4.16,1.16-6.3-.01-.44,.34-.81,.79-.82,.45,0,.81,.34,.82,.79,.06,2.36-.39,4.76-1.28,6.94-.13,.31-.43,.5-.75,.5Z"/>
    </g>
    <g>
      <path d="M1186.03,446.54c8.02-4.66,21.32-21.19,17.68-34.59-1.94-7.14-5.36-32.83-42.83-35.23-.76,11.94-12.4,17.33-19.84,18.22-4.05,.48-19.32,.03-19.32-17.69-10.11,.56-22.88,2.12-42.52,9.94-14.89,5.93-40.27,9.85-40.27,9.85,0,0-25.66-32.84-34.88-46.3-5.06-7.39-14.19,23.24-19.84,10.31-.86-1.96,26.29,52.33,28.5,56.44,11.53,21.46,64.76,7.88,75.06,7.88-1.01,14.95,5.37,23.8,10.57,28.33,1.6,34.52-6.84,58.41-6.84,58.41,0,0,47.21,17.54,96.09,3.1,3.75-1.11-9.36-31.33-1.56-68.66Z" fill="#59c4bc" stroke="#231f20" stroke-miterlimit="10"/>
      <path d="M1146.29,521.69c-9.54,0-18.15-.81-25.2-1.82-17.79-2.56-29.76-6.96-29.88-7.01-.41-.15-.62-.61-.48-1.02,.08-.24,8.31-24,6.81-57.76-4.45-3.98-11.38-12.68-10.64-27.88-2.16,.12-5.62,.62-9.87,1.23-19.43,2.81-55.58,8.05-65.05-9.56-1.14-2.12-8.67-17.1-15.95-31.59-4.85-9.66-9.84-19.59-11.74-23.32-.29-.45-.57-.98-.83-1.58-.25-.56,.09-.97,.38-1.1,.71-.33,1.02,.26,1.34,.89,.13,.25,.3,.58,.51,.99,.54,.82,1.1,1.26,1.68,1.31,2.03,.2,4.82-3.81,7.29-7.35,2.75-3.94,5.13-7.35,7.57-7.35h.01c.95,0,1.78,.51,2.46,1.52,8.57,12.52,31.69,42.21,34.56,45.89,3.52-.57,26.1-4.34,39.63-9.73,19.63-7.82,32.64-9.44,42.78-10,.22,0,.44,.07,.6,.22,.16,.15,.25,.36,.25,.58,0,5.76,1.66,10.15,4.93,13.05,4.27,3.79,10.49,4.2,13.49,3.84,6.28-.75,18.36-5.37,19.13-17.47,.01-.21,.11-.41,.27-.55,.16-.14,.37-.21,.58-.2,35.42,2.27,41.01,25.38,43.12,34.08,.16,.66,.3,1.25,.44,1.75,3.75,13.79-9.59,30.35-17.74,35.31-4.99,24.27-1.05,45.89,1.07,57.53,1.35,7.42,1.97,10.81,0,11.4-14.49,4.28-28.83,5.71-41.52,5.71Zm-53.79-10.08c6.16,2.1,50.05,16.05,94.81,2.84,.53-.72-.29-5.22-1.08-9.57-2.15-11.81-6.16-33.78-1-58.49,.05-.22,.19-.42,.38-.53,8.05-4.68,20.74-21.03,17.3-33.68-.14-.51-.28-1.11-.45-1.79-2.2-9.1-7.34-30.32-40.87-32.8-1.3,12.56-13.87,17.38-20.48,18.16-.9,.11-8.96,.9-14.75-4.24-3.46-3.07-5.3-7.58-5.46-13.4-9.89,.6-22.56,2.32-41.43,9.84-14.8,5.89-40.19,9.86-40.45,9.9-.29,.04-.58-.07-.76-.3-.26-.33-25.79-33.01-34.91-46.34-.56-.81-1-.82-1.14-.82h0c-1.6,0-4.07,3.54-6.25,6.66-2.88,4.13-5.61,8.04-8.46,8.04-.1,0-.2,0-.31-.02-.01,0-.03,0-.04,0,.47,.94,1.01,2,1.6,3.16,2.32,4.61,5.46,10.85,8.71,17.32,6.94,13.81,14.8,29.46,15.93,31.56,8.93,16.62,44.36,11.49,63.4,8.73,4.92-.71,8.81-1.28,10.95-1.28,.22,0,.44,.09,.59,.26,.15,.16,.23,.38,.22,.6-1.03,15.36,6.01,23.93,10.3,27.67,.17,.14,.26,.35,.27,.57,1.43,30.87-5.23,53.57-6.63,57.94Z" fill="#59c4bc" stroke="#231f20" stroke-miterlimit="10"/>
    </g>
    <g>
      <g>
        <polygon points="1009.5 277.08 984.2 303.92 973.3 426.87 1075.13 437.1 1088.59 285.29 1009.5 277.08" fill="#fff"/>
        <path d="M1075.13,437.91s-.05,0-.08,0l-101.83-10.23c-.44-.04-.76-.43-.72-.87l10.9-122.95c.02-.18,.09-.35,.22-.48l25.3-26.84c.17-.18,.42-.27,.67-.25l79.09,8.21c.44,.05,.76,.43,.72,.87l-13.46,151.81c-.02,.21-.12,.41-.29,.55-.15,.12-.33,.18-.51,.18Zm-100.96-11.76l100.23,10.07,13.32-150.21-77.91-8.09-24.83,26.35-10.81,121.88Z"/>
      </g>
      <g>
        <polygon points="984.2 303.92 1007.21 305.66 1009.5 277.08 984.2 303.92" fill="#59c4bc"/>
        <path d="M1007.21,306.47s-.04,0-.06,0l-23.01-1.74c-.31-.02-.58-.22-.69-.51-.11-.29-.05-.62,.16-.84l25.3-26.84c.23-.25,.6-.32,.91-.18,.31,.14,.5,.46,.48,.8l-2.29,28.58c-.03,.42-.39,.74-.8,.74Zm-21.27-3.22l20.53,1.56,2.04-25.5-22.57,23.95Z"/>
      </g>
      <g>
        <path d="M1067.38,305.79s-.02,0-.03,0l-18.58-1.93c-.15-.02-.25-.15-.24-.29s.15-.25,.29-.24l18.58,1.93c.15,.02,.25,.15,.24,.29-.01,.14-.13,.24-.27,.24Z"/>
        <path d="M1066.75,312.93s-.02,0-.03,0l-26.23-2.72c-.15-.02-.25-.15-.24-.29,.01-.15,.15-.26,.29-.24l26.23,2.72c.15,.02,.25,.15,.24,.29-.01,.14-.13,.24-.27,.24Z"/>
      </g>
      <path d="M1063.94,344.54s-.02,0-.03,0l-64.48-6.7c-.15-.02-.25-.15-.24-.29,.02-.15,.15-.26,.29-.24l64.48,6.7c.15,.02,.25,.15,.24,.29-.01,.14-.13,.24-.27,.24Z"/>
      <path d="M1061.87,367.89s-.02,0-.03,0l-64.48-6.7c-.15-.02-.25-.15-.24-.29,.02-.15,.15-.25,.29-.24l64.48,6.7c.15,.02,.25,.15,.24,.29-.01,.14-.13,.24-.27,.24Z"/>
      <path d="M1059.8,391.24s-.02,0-.03,0l-64.48-6.69c-.15-.02-.25-.15-.24-.29,.02-.15,.15-.26,.29-.24l64.48,6.69c.15,.02,.25,.15,.24,.29-.01,.14-.13,.24-.27,.24Z"/>
    </g>
    <g>
      <path d="M1111.21,394.92c-3.42-3.42-7.33-6.62-10.92-14.96-2.29-5.32-10-17.04-12.84-18.47-4.75-2.4-7.63-4.58-12.1-5.18-3.73-.51-11.08,.46-11.29,1.76-.66,4.06,9.09,1.48,9.92,1.78,2.88,1.02,5.73,2.17,8.29,5.43-3.99,.15-10.97,1.05-12.74,2.15-1.87,1.16-6.72,7.19-7.28,8.26-.96,1.86,.04,3.69,2.36,1.75,.13-.1,4.83-3.41,6.53-5.51,.69-.85,7.7-1.49,10.91-.87-3.31-1.09-9.57-.36-10.95,.89-.33,.3-5.52,5.95-5.84,6.52-1.36,2.39,.96,3.28,2.79,1.91,2.08-1.56,4.27-4.1,4.81-4.37,2.95-1.51,5.99-.65,8.52-.34-2.48-.48-5.35-.97-8.38,.18-.54,.21-6.09,4.64-4.8,6.83,.69,1.18,3.32,.55,6.55-3.06,1.91,.27,3,.72,4.59,1.1,1.11,.27,4.89,8.65,9.18,11.1,.86,.49,3.78,7.77,9.03,17.61,1.13,2.12,6.35,5.45,12.08-2.5,2.06-2.87,4.82-8.75,1.59-11.99Z" fill="#fff"/>
      <path d="M1102.13,412.75c-.14,0-.28,0-.42-.01-2.35-.16-4.17-1.64-4.87-2.95-2.51-4.72-4.51-8.88-5.97-11.91-1.23-2.57-2.4-5-2.79-5.4-2.86-1.65-5.36-5.56-7.19-8.41-.67-1.04-1.49-2.32-1.82-2.6-.52-.13-.99-.26-1.46-.39-.8-.23-1.57-.45-2.56-.61-2.23,2.41-4.41,3.69-6.02,3.53-.67-.07-1.21-.4-1.52-.92-.24-.41-.34-.88-.29-1.39-.94,.27-1.88,.14-2.5-.41-.27-.24-1.04-1.09-.43-2.63-1.32,.75-2.15,.31-2.49,.04-.83-.67-.94-2.06-.25-3.38,.62-1.19,5.59-7.34,7.57-8.57,1.82-1.14,7.7-1.9,11.48-2.18-2.08-2.13-4.34-3.07-6.81-3.94-.24-.01-.94,.09-1.57,.17-3.42,.46-6.88,.78-8.33-.71-.37-.38-.78-1.07-.61-2.15,.39-2.38,9.32-2.82,12.2-2.43,3.52,.48,6.12,1.9,9.14,3.56,1.01,.55,2.05,1.12,3.21,1.71,3.23,1.63,11.1,13.97,13.21,18.87,3.12,7.25,6.4,10.45,9.57,13.55,.4,.39,.79,.78,1.18,1.16,3.61,3.61,.76,9.89-1.5,13.03-3.14,4.37-6.1,5.37-8.15,5.37Zm-27.37-33.96s.08,0,.11,0c1.31,.19,2.27,.46,3.19,.72,.47,.13,.94,.27,1.47,.39,.69,.17,1.24,.97,2.71,3.27,1.65,2.58,4.15,6.47,6.68,7.91,.64,.36,1.28,1.66,3.4,6.08,1.45,3.03,3.44,7.17,5.94,11.85,.41,.78,1.7,1.97,3.55,2.1,2.36,.16,4.84-1.46,7.16-4.69,1.83-2.54,4.53-8.09,1.67-10.95h0c-.38-.38-.77-.77-1.17-1.15-3.13-3.06-6.67-6.52-9.92-14.06-2.35-5.45-9.94-16.8-12.46-18.07-1.19-.6-2.24-1.18-3.26-1.73-3-1.64-5.37-2.94-8.59-3.37-3.62-.49-9.55,.44-10.4,1.2-.04,.38,.08,.55,.19,.67,1.01,1.03,5.03,.49,6.96,.23,1.43-.19,1.9-.25,2.26-.12,3.05,1.08,6,2.32,8.66,5.69,.19,.24,.23,.56,.1,.84-.13,.27-.4,.45-.7,.47-4.38,.17-10.86,1.11-12.34,2.03-1.68,1.05-6.49,6.98-6.99,7.94-.39,.75-.28,1.29-.17,1.38,.05,.04,.46,.08,1.29-.62,.02-.01,.1-.08,.25-.18,2.59-1.88,4.16-3.2,5.13-4.11,.64-.69,1.08-1.16,1.09-1.17,1.72-1.55,8.41-2.16,11.74-1.06,.4,.13,.63,.56,.53,.97-.11,.41-.51,.67-.93,.59-3.16-.61-9.32,.07-10.16,.62-.27,.33-.66,.75-1.25,1.3-1.6,1.73-4.26,4.68-4.53,5.1-.31,.54-.38,1.02-.18,1.2,.26,.23,1.03,.24,1.8-.34,.28-.21,.56-.43,.83-.67,1.47-1.98,3.82-3.79,4.31-3.97,.48-.18,.97-.33,1.44-.44,.86-.23,1.71-.32,2.55-.32,1.82-.04,3.48,.28,4.84,.54,.43,.08,.71,.49,.64,.91-.07,.43-.47,.72-.89,.67-.43-.05-.88-.12-1.34-.19-1.11-.17-2.24-.34-3.36-.33-.64,.02-1.28,.1-1.92,.24-.48,.12-.95,.3-1.43,.54-.15,.09-.71,.65-1.2,1.14-.68,.67-1.53,1.52-2.43,2.3-.34,.48-.61,.94-.73,1.36-.14,.48-.02,.68,.02,.74,.02,.03,.07,.11,.29,.14,.67,.07,2.49-.56,4.96-3.33,.15-.17,.37-.27,.6-.27Z"/>
    </g>
    <g>
      <path d="M967.23,365.41c-1.1-5.69,1.67-16.22,4.03-18.35,3.95-3.58,6.14-6.43,10.29-8.2,3.47-1.48,10.81-2.49,11.36-1.29,1.71,3.74-8.38,3.84-9.1,4.34-2.51,1.74-4.95,3.61-6.56,7.43,3.89-.91,10.85-1.89,12.85-1.3,2.11,.63,8.39,5.15,9.2,6.03,1.42,1.53,.93,3.57-1.81,2.31-.15-.07-5.56-2.01-7.75-3.58-.89-.63-7.82,.6-10.75,2.05,2.9-1.93,9.13-2.88,10.79-2.04,.39,.2,6.9,4.28,7.36,4.74,1.94,1.94-.06,3.42-2.19,2.58-2.42-.95-5.21-2.82-5.8-2.94-3.24-.67-5.95,.96-8.3,1.92,2.27-1.12,4.9-2.36,8.13-2.04,.58,.06,7.1,2.86,6.44,5.31-.35,1.32-3.06,1.41-7.12-1.22-1.77,.77-2.7,1.49-4.14,2.28-1,.55-2.42,9.64-5.91,13.13-.7,.7-1.31,7.16-1.97,13.07-.75,6.76-7.88-18.15-9.05-24.23Z" fill="#fff"/>
      <path d="M975.7,391.6c-.74,0-1.9-.51-5.26-11.22-1.86-5.95-3.5-12.21-4-14.82-1.13-5.89,1.66-16.73,4.28-19.1,.97-.87,1.82-1.7,2.64-2.49,2.48-2.39,4.61-4.46,7.88-5.85,2.67-1.14,11.4-3.08,12.4-.89,.46,1,.24,1.77-.01,2.24-1,1.82-4.42,2.42-7.84,2.89-.63,.09-1.34,.18-1.56,.25-2.15,1.5-4.08,3-5.53,5.6,3.72-.74,9.58-1.55,11.64-.94,2.23,.66,8.66,5.28,9.56,6.26,1.01,1.09,1.28,2.46,.65,3.33-.25,.34-.93,.99-2.41,.62,1,1.32,.49,2.34,.29,2.65-.46,.7-1.33,1.08-2.31,1.06,.18,.48,.21,.95,.08,1.41-.16,.59-.59,1.05-1.22,1.29-1.51,.58-3.95-.08-6.74-1.81-.92,.42-1.59,.83-2.31,1.27-.41,.25-.83,.5-1.3,.76-.24,.35-.7,1.81-1.06,2.98-1.01,3.24-2.39,7.68-4.71,10.02-.47,.8-1.07,6.25-1.51,10.24-.09,.79-.17,1.59-.26,2.38-.05,.45-.2,1.82-1.27,1.87-.04,0-.08,0-.12,0Zm.31-1.55h0Zm14.87-52.22c-2.22,0-6.4,.66-9.01,1.77-2.99,1.27-4.93,3.15-7.39,5.53-.83,.81-1.69,1.64-2.68,2.53-2.07,1.87-4.85,12.05-3.78,17.6h0c1.04,5.39,5.48,20.6,7.48,24.12,.08-.73,.16-1.47,.24-2.2,.88-8.04,1.24-10.48,1.94-11.18,2.06-2.06,3.43-6.47,4.34-9.39,.81-2.61,1.13-3.53,1.75-3.88,.48-.26,.9-.52,1.32-.77,.82-.5,1.67-1.01,2.89-1.54,.25-.11,.53-.08,.76,.06,3.12,2.02,5.03,2.14,5.66,1.89,.21-.08,.24-.17,.25-.21,.02-.07,.08-.29-.18-.72-.23-.37-.61-.75-1.06-1.12-1.07-.51-2.12-1.1-2.95-1.57-.61-.34-1.29-.73-1.48-.79-.54-.11-1.07-.15-1.58-.14-.6,.03-1.18,.12-1.75,.25-1.12,.28-2.19,.76-3.24,1.23-.43,.19-.84,.37-1.24,.54-.4,.16-.86-.02-1.04-.41-.18-.4-.01-.86,.38-1.05,1.24-.61,2.75-1.36,4.51-1.8,.81-.22,1.66-.37,2.55-.37,.49-.02,.99,0,1.5,.04,.52,.05,3.27,1.17,5.21,2.69,.33,.15,.66,.3,.98,.42,.9,.35,1.64,.14,1.83-.15,.15-.22-.05-.66-.5-1.11-.37-.33-3.71-2.46-5.7-3.71-.63-.33-1.15-.64-1.56-.93-.95-.31-7.09,.66-9.97,2.09-.38,.19-.84,.05-1.05-.32s-.1-.84,.25-1.07c2.92-1.94,9.54-3.14,11.6-2.09,.02,0,.57,.35,1.36,.84,1.17,.63,3.04,1.48,6.04,2.61,.17,.06,.26,.1,.28,.11,.99,.45,1.38,.3,1.41,.26,.08-.11,.05-.67-.53-1.29-.74-.8-6.94-5.24-8.84-5.81-1.68-.5-8.18,.31-12.44,1.31-.29,.07-.6-.03-.8-.26-.19-.23-.24-.55-.13-.83,1.67-3.96,4.19-5.94,6.84-7.78,.32-.22,.78-.29,2.21-.49,1.93-.26,5.95-.81,6.65-2.07,.08-.14,.14-.34,0-.69-.23-.11-.7-.17-1.34-.17Z"/>
    </g>
    <path d="M1147.83,427.6s-.07,0-.1,0c-1.91-.22-30.29-25.52-37.08-32.09-.32-.31-.33-.82-.02-1.14,.31-.32,.82-.33,1.14-.02,9.12,8.83,33.75,30.35,36.2,31.64,2.83-.41,25.89-18.07,34.61-24.75,.35-.27,.86-.2,1.13,.15,.27,.35,.2,.86-.15,1.13-23.78,18.21-33.57,25.08-35.73,25.08Z"/>
    <path d="M1143.58,468.65c-1.41,0-2.66-.19-3.78-.56-5.42-1.81-18.88-17.71-41.17-48.6l-.95-1.32c-2.05-2.83-4.1-8.79-2.45-12.17,.19-.4,.68-.56,1.08-.37,.4,.2,.57,.68,.37,1.08-1.31,2.67,.49,8.01,2.31,10.52l.95,1.32c21.77,30.18,35.36,46.34,40.37,48.01,7.86,2.63,24.66-5.47,49.95-24.04,.36-.26,.86-.19,1.13,.17,.26,.36,.19,.86-.17,1.13-22.67,16.65-38.33,24.83-47.63,24.83Z"/>
    <path d="M1102.25,417.2c-.13,0-.25-.1-.27-.23-.02-.15,.08-.28,.23-.3,4.58-.63,8.04-4.21,11.47-8.13,.1-.11,.27-.12,.38-.03,.11,.1,.12,.27,.03,.38-3.5,4-7.04,7.65-11.8,8.31-.01,0-.02,0-.04,0Z"/>
    <path d="M1104.84,420.74c-.12,0-.23-.09-.26-.21-.03-.14,.06-.29,.2-.32,1.91-.42,3.67-1.36,5.08-2.72,.11-.1,.28-.1,.38,0,.1,.11,.1,.28,0,.38-1.48,1.43-3.33,2.42-5.34,2.86-.02,0-.04,0-.06,0Z"/>
    <path d="M1147.32,513.87c-23.11,0-43.52-4.3-51.19-6.14-.14-.03-.23-.18-.2-.32,.03-.14,.18-.24,.32-.2,11.53,2.77,51.86,11.08,86.76,1.97,.14-.04,.29,.05,.33,.19,.04,.14-.05,.29-.19,.33-11.76,3.07-24.14,4.17-35.83,4.17Z"/>
    <path d="M1087.45,426.82c-.1,0-.2-.02-.29-.05-.41-.16-.62-.63-.46-1.04l4.77-12.28c.16-.41,.63-.62,1.04-.46,.41,.16,.62,.63,.46,1.04l-4.77,12.28c-.12,.32-.43,.51-.75,.51Z"/>
    <path d="M1084.17,610.7c-.44,0-.8-.36-.8-.8,0-22.62,7.68-73.19,10.56-92.23,.24-1.56,.44-2.9,.6-3.97,.07-.44,.47-.75,.92-.68,.44,.07,.74,.48,.68,.92-.16,1.07-.36,2.41-.6,3.97-2.88,19.01-10.55,69.49-10.55,91.99,0,.44-.36,.8-.8,.8Z"/>
    <path d="M1187.75,530.65c-.35,0-.66-.22-.77-.57-1-3.3-2.52-7.67-4.66-13.35-.16-.42,.05-.88,.47-1.04,.41-.16,.88,.05,1.04,.47,2.15,5.71,3.69,10.11,4.7,13.45,.13,.43-.11,.88-.54,1-.08,.02-.16,.03-.23,.03Z"/>
    <path d="M986.58,283.89c-.42,0-.78-.33-.8-.76-.38-6.49,2.03-13.21,6.43-17.99,.3-.33,.81-.35,1.14-.05,.33,.3,.35,.81,.05,1.14-4.11,4.47-6.36,10.75-6.01,16.81,.03,.44-.31,.82-.76,.85-.02,0-.03,0-.05,0Z"/>
    <path d="M976.37,282.64c-.07,0-.14,0-.22-.01-.93-.09-.83-1.19-.76-2,.31-3.41,.8-6.85,1.44-10.22,.08-.42,.48-.7,.9-.65,.43,.06,.73,.44,.69,.87-1.02,11.14-1.27,12.01-2.06,12.01Zm.61-1.05h0Z"/>
    <path d="M1060.57,628.93s-.07,0-.1,0c-.21-.03-.4-.14-.53-.31l-209.62-271.26c-.13-.17-.19-.38-.16-.59,.03-.21,.14-.4,.31-.53l245.23-189.5c.35-.27,.86-.21,1.13,.14l209.62,271.26c.27,.35,.21,.86-.14,1.13l-245.23,189.5c-.14,.11-.31,.17-.49,.17Zm-208.49-271.92l208.63,269.99,243.96-188.52-208.63-269.99-243.96,188.52Z"/>
    <path d="M1129.75,574.77c-.09,0-.19-.02-.28-.05-.42-.16-.63-.62-.47-1.04l9.22-24.64c.11-.3,.4-.51,.72-.52,.32,0,.62,.17,.76,.46,2.21,4.73,3.9,9.72,5.01,14.82,.09,.43-.18,.86-.61,.96-.44,.09-.86-.18-.96-.61-.95-4.35-2.33-8.62-4.1-12.71l-8.53,22.81c-.12,.32-.43,.52-.75,.52Z"/>
    <path d="M1128.25,550.43c-.43,0-.78-.33-.8-.76-.02-.44,.32-.82,.76-.85l10.59-.57c.44-.01,.82,.32,.85,.76,.02,.44-.32,.82-.76,.85l-10.6,.57s-.03,0-.04,0Z"/>
    <g>
      <g>
        <polygon points="1025.69 518.08 991.2 583.45 905.93 562.15 909.31 493.62 1025.69 518.08"/>
        <path d="M991.2,584.26c-.06,0-.13,0-.19-.02l-85.27-21.3c-.37-.09-.63-.44-.61-.82l3.39-68.53c.01-.24,.13-.45,.31-.6,.19-.14,.43-.2,.66-.15l116.38,24.47c.25,.05,.46,.22,.56,.45,.11,.23,.1,.49-.02,.72l-34.49,65.37c-.14,.27-.42,.43-.71,.43Zm-84.44-22.73l84.02,20.99,33.7-63.87-114.41-24.05-3.31,66.93Z"/>
      </g>
      <g>
        <g>
          <polygon points="1013.07 480.89 990.26 583.78 898.27 564.42 919.28 461.4 1013.07 480.89" fill="#fff"/>
          <path d="M990.26,584.58c-.05,0-.11,0-.17-.02l-91.99-19.35c-.43-.09-.71-.51-.62-.95l21.01-103.02c.04-.21,.17-.39,.35-.51,.18-.12,.4-.16,.61-.12l93.79,19.49c.21,.04,.4,.17,.51,.35s.16,.4,.11,.61l-22.81,102.89c-.08,.37-.42,.63-.79,.63Zm-91.04-20.78l90.43,19.03,22.46-101.31-92.2-19.16-20.69,101.44Z"/>
        </g>
        <path d="M987.86,519.19s-.04,0-.06,0l-37.25-7.74c-.15-.03-.24-.17-.21-.32,.03-.15,.17-.24,.32-.21l37.25,7.74c.15,.03,.24,.17,.21,.32-.03,.13-.14,.21-.26,.21Z"/>
        <path d="M984.56,535.08s-.04,0-.06,0l-32.78-6.81c-.15-.03-.24-.17-.21-.32,.03-.15,.18-.24,.32-.21l32.78,6.81c.15,.03,.24,.17,.21,.32-.03,.13-.14,.21-.26,.21Z"/>
        <path d="M981.26,550.96s-.04,0-.06,0l-32.78-6.81c-.15-.03-.24-.17-.21-.32,.03-.15,.17-.24,.32-.21l32.78,6.81c.15,.03,.24,.17,.21,.32-.03,.13-.14,.21-.26,.21Z"/>
      </g>
      <g>
        <polygon points="925.28 481.88 936.41 499.67 990.5 510.18 990.26 583.78 885.31 561.73 885.61 473.53 925.28 481.88" fill="#fff"/>
        <path d="M990.26,584.58c-.06,0-.11,0-.17-.02l-104.94-22.05c-.37-.08-.64-.41-.64-.79l.29-88.2c0-.24,.11-.47,.3-.62,.19-.15,.43-.21,.67-.16l39.67,8.35c.21,.04,.4,.18,.52,.36l10.94,17.49,53.75,10.44c.38,.07,.65,.41,.65,.79l-.24,73.6c0,.24-.11,.47-.3,.62-.14,.12-.32,.18-.51,.18Zm-104.14-23.51l103.34,21.71,.24-71.95-53.44-10.38c-.22-.04-.41-.17-.53-.36l-10.95-17.5-38.37-8.08-.29,86.55Z"/>
      </g>
      <path d="M990.94,494.17s-.04,0-.06,0l-52.3-10.87c-.15-.03-.24-.17-.21-.32,.03-.15,.17-.24,.32-.21l52.3,10.87c.15,.03,.24,.17,.21,.32-.03,.13-.14,.21-.26,.21Z"/>
      <path d="M989.28,502.16s-.04,0-.06,0l-28.27-5.87c-.15-.03-.24-.17-.21-.32,.03-.15,.17-.24,.32-.21l28.27,5.87c.15,.03,.24,.17,.21,.32-.03,.13-.14,.21-.26,.21Z"/>
    </g>
    <path d="M1318.23,392.66c-.44,0-.8-.36-.8-.8v-86.55c0-.44,.36-.8,.8-.8s.81,.36,.81,.8v86.55c0,.44-.36,.8-.81,.8Z"/>
    <g>
      <rect x="1310.63" y="384.06" width="15.21" height="15.21" transform="translate(1709.9 -926.57) rotate(90)" fill="#59c4bc"/>
      <path d="M1325.84,400.07h-15.21c-.44,0-.8-.36-.8-.8v-15.21c0-.44,.36-.8,.8-.8h15.21c.44,0,.8,.36,.8,.8v15.21c0,.44-.36,.8-.8,.8Zm-14.4-1.61h13.6v-13.6h-13.6v13.6Z"/>
    </g>
    <path d="M1001.64,218.07h-128.97c-.44,0-.81-.36-.81-.81s.36-.8,.81-.8h128.97c.44,0,.81,.36,.81,.8s-.36,.81-.81,.81Z"/>
    <path d="M951.51,218.25c-.44,0-.81-.36-.81-.8v-63.23c0-.44,.36-.8,.81-.8s.8,.36,.8,.8v63.23c0,.44-.36,.8-.8,.8Z"/>
    <g>
      <rect x="943.91" y="209.66" width="15.21" height="15.21" transform="translate(1168.78 -734.25) rotate(90)" fill="#ffd42e"/>
      <path d="M959.12,225.67h-15.21c-.44,0-.8-.36-.8-.8v-15.21c0-.44,.36-.8,.8-.8h15.21c.44,0,.8,.36,.8,.8v15.21c0,.44-.36,.8-.8,.8Zm-14.4-1.61h13.6v-13.6h-13.6v13.6Z"/>
    </g>
    <path d="M1001.64,218.07h-128.97c-.44,0-.81-.36-.81-.81s.36-.8,.81-.8h128.97c.44,0,.81,.36,.81,.8s-.36,.81-.81,.81Z"/>
    <path d="M951.51,218.25c-.44,0-.81-.36-.81-.8v-63.23c0-.44,.36-.8,.81-.8s.8,.36,.8,.8v63.23c0,.44-.36,.8-.8,.8Z"/>
    <g>
      <rect x="943.91" y="209.66" width="15.21" height="15.21" transform="translate(1168.78 -734.25) rotate(90)" fill="#59c4bc"/>
      <path d="M959.12,225.67h-15.21c-.44,0-.8-.36-.8-.8v-15.21c0-.44,.36-.8,.8-.8h15.21c.44,0,.8,.36,.8,.8v15.21c0,.44-.36,.8-.8,.8Zm-14.4-1.61h13.6v-13.6h-13.6v13.6Z"/>
    </g>
    <path d="M898.38,590.36h-128.97c-.44,0-.8-.36-.8-.81s.36-.8,.8-.8h128.97c.44,0,.8,.36,.8,.8s-.36,.81-.8,.81Z"/>
    <path d="M833.9,590.36c-.44,0-.8-.36-.8-.81v-75.96c0-.44,.36-.8,.8-.8s.8,.36,.8,.8v75.96c0,.44-.36,.81-.8,.81Z"/>
    <g>
      <rect x="826.29" y="581.77" width="15.21" height="15.21" transform="translate(1423.27 -244.53) rotate(90)" fill="#59c4bc"/>
      <path d="M841.5,597.78h-15.21c-.44,0-.8-.36-.8-.8v-15.21c0-.44,.36-.8,.8-.8h15.21c.44,0,.8,.36,.8,.8v15.21c0,.44-.36,.8-.8,.8Zm-14.4-1.61h13.6v-13.6h-13.6v13.6Z"/>
    </g>
    <g>
      <path d="M1278.33,264.23c-7.05-5.8-15.75-7.2-22.4-.79-6.65,6.41-7.54,19.96-.89,26.37,7.23,6.97,24.41,6.88,33.8,6.72,18.08-.31,36.46,.56,54.54,.56,33.87,0,30.2-29.1,21.17-35.3-4.39-3.01-10.36-2.53-14.35,1.16,1.69-12.25-5.83-25.27-16.23-28.08-10.4-2.81-22.1,5.01-25.24,16.87-4.68-5.65-12.45-7.49-18.67-4.43-6.22,3.06-10.22,9.59-11.73,16.93Z" fill="#fff"/>
      <path d="M1343.39,297.89c-7.66,0-15.51-.16-23.1-.31-10.33-.21-21.02-.43-31.43-.25-8.67,.15-26.7,.46-34.38-6.94-3.06-2.95-4.81-7.6-4.81-12.77,0-5.8,2.13-11.32,5.7-14.76,6.14-5.92,14.65-5.91,22.45-.05,1.86-7.54,6.15-13.41,11.88-16.23,6.18-3.04,13.66-1.56,18.66,3.55,1.91-5.81,5.89-10.79,11.1-13.8,4.73-2.73,9.95-3.53,14.72-2.24,10.34,2.8,17.81,14.91,17.02,27.05,4.15-2.77,9.68-2.86,13.81-.02,4.9,3.36,8.33,12.82,5.63,21.54-1.76,5.69-7.65,15.24-27.25,15.24Zm-46.29-2.23c7.77,0,15.6,.16,23.23,.31,7.58,.15,15.42,.31,23.06,.31,18.57,0,24.08-8.84,25.72-14.1,2.46-7.92-.67-16.75-5.01-19.73-4.05-2.78-9.66-2.32-13.34,1.09-.25,.23-.62,.28-.92,.12-.3-.16-.47-.49-.43-.82,1.63-11.79-5.68-24.5-15.65-27.19-4.35-1.18-9.14-.44-13.49,2.08-5.25,3.04-9.17,8.22-10.76,14.22-.08,.29-.31,.51-.6,.58-.29,.06-.6-.04-.79-.27-4.41-5.32-11.85-7.1-17.69-4.23-5.6,2.76-9.72,8.72-11.3,16.37-.06,.28-.25,.5-.52,.6-.27,.09-.56,.04-.78-.14-7.5-6.17-15.47-6.48-21.33-.83-3.26,3.15-5.21,8.23-5.21,13.6,0,4.73,1.57,8.96,4.32,11.61,7.2,6.94,25.44,6.63,33.23,6.49,2.74-.05,5.49-.07,8.26-.07Z"/>
    </g>
    <path d="M905.08,273.19c-4.14,0-7.5-3.37-7.5-7.5s3.37-7.5,7.5-7.5,7.5,3.37,7.5,7.5-3.37,7.5-7.5,7.5Zm0-13.4c-3.25,0-5.9,2.64-5.9,5.89s2.64,5.89,5.9,5.89,5.89-2.64,5.89-5.89-2.64-5.89-5.89-5.89Z"/>
    <path d="M1443.83,352.77c-4.14,0-7.5-3.37-7.5-7.5s3.37-7.5,7.5-7.5,7.5,3.37,7.5,7.5-3.37,7.5-7.5,7.5Zm0-13.4c-3.25,0-5.89,2.64-5.89,5.89s2.64,5.9,5.89,5.9,5.9-2.64,5.9-5.9-2.64-5.89-5.9-5.89Z"/>
    <path d="M692.66,491.27c-4.14,0-7.5-3.37-7.5-7.5s3.37-7.5,7.5-7.5,7.5,3.37,7.5,7.5-3.37,7.5-7.5,7.5Zm0-13.4c-3.25,0-5.89,2.64-5.89,5.89s2.64,5.9,5.89,5.9,5.9-2.64,5.9-5.9-2.64-5.89-5.9-5.89Z"/>
  </g>
</svg>